{
  "accessors": [
    {
      "bufferView": 2,
      "componentType": 5126,
      "count": 65532,
      "max": [
        16.913875579833984,
        2.5766265392303467,
        11.927359580993652
      ],
      "min": [
        -10.08855152130127,
        -12.908365249633789,
        -2.1154098510742188
      ],
      "type": "VEC3"
    },
    {
      "bufferView": 2,
      "byteOffset": 786384,
      "componentType": 5126,
      "count": 65532,
      "max": [
        0.9876435995101929,
        0.9959537386894226,
        0.9999907612800598
      ],
      "min": [
        -1.0,
        -0.9999984502792358,
        -0.9999880790710449
      ],
      "type": "VEC3"
    },
    {
      "bufferView": 1,
      "componentType": 5126,
      "count": 65532,
      "max": [
        0.9996330142021179,
        0.9997559785842896
      ],
      "min": [
        0.00024399999529123306,
        0.00037900000461377203
      ],
      "type": "VEC2"
    },
    {
      "bufferView": 0,
      "componentType": 5125,
      "count": 299670,
      "type": "SCALAR"
    },
    {
      "bufferView": 2,
      "byteOffset": 1572768,
      "componentType": 5126,
      "count": 65533,
      "max": [
        6.83638858795166,
        2.5766265392303467,
        11.927359580993652
      ],
      "min": [
        -10.601751327514648,
        -9.739846229553223,
        1.1754941940307617
      ],
      "type": "VEC3"
    },
    {
      "bufferView": 2,
      "byteOffset": 2359164,
      "componentType": 5126,
      "count": 65533,
      "max": [
        0.9973247647285461,
        0.9999817609786987,
        0.9999963641166687
      ],
      "min": [
        -0.9998933672904968,
        -0.9999997615814209,
        -0.9999846816062927
      ],
      "type": "VEC3"
    },
    {
      "bufferView": 1,
      "byteOffset": 524256,
      "componentType": 5126,
      "count": 65533,
      "max": [
        0.9996129870414734,
        0.9997559785842896
      ],
      "min": [
        0.00024399999529123306,
        0.0005670000100508332
      ],
      "type": "VEC2"
    },
    {
      "bufferView": 0,
      "byteOffset": 1198680,
      "componentType": 5125,
      "count": 256917,
      "type": "SCALAR"
    },
    {
      "bufferView": 2,
      "byteOffset": 3145560,
      "componentType": 5126,
      "count": 65534,
      "max": [
        16.913875579833984,
        2.5766265392303467,
        11.927359580993652
      ],
      "min": [
        -14.23698902130127,
        -12.908365249633789,
        -2.1154098510742188
      ],
      "type": "VEC3"
    },
    {
      "bufferView": 2,
      "byteOffset": 3931968,
      "componentType": 5126,
      "count": 65534,
      "max": [
        0.999225914478302,
        0.9990727305412292,
        0.9999781250953674
      ],
      "min": [
        -0.9999590516090393,
        -0.9999984502792358,
        -0.9999998211860657
      ],
      "type": "VEC3"
    },
    {
      "bufferView": 1,
      "byteOffset": 1048520,
      "componentType": 5126,
      "count": 65534,
      "max": [
        0.9996280074119568,
        0.9997559785842896
      ],
      "min": [
        0.00024399999529123306,
        0.0004400000034365803
      ],
      "type": "VEC2"
    },
    {
      "bufferView": 0,
      "byteOffset": 2226348,
      "componentType": 5125,
      "count": 216138,
      "type": "SCALAR"
    },
    {
      "bufferView": 2,
      "byteOffset": 4718376,
      "componentType": 5126,
      "count": 65532,
      "max": [
        16.913875579833984,
        2.5766265392303467,
        11.927359580993652
      ],
      "min": [
        -13.140751838684082,
        -12.908365249633789,
        -2.1154098510742188
      ],
      "type": "VEC3"
    },
    {
      "bufferView": 2,
      "byteOffset": 5504760,
      "componentType": 5126,
      "count": 65532,
      "max": [
        0.997233510017395,
        0.9999817609786987,
        0.9999780058860779
      ],
      "min": [
        -0.9999761581420898,
        -0.9999997615814209,
        -1.0
      ],
      "type": "VEC3"
    },
    {
      "bufferView": 1,
      "byteOffset": 1572792,
      "componentType": 5126,
      "count": 65532,
      "max": [
        0.9996309876441956,
        0.9997559785842896
      ],
      "min": [
        0.00024399999529123306,
        0.00036700000055134296
      ],
      "type": "VEC2"
    },
    {
      "bufferView": 0,
      "byteOffset": 3090900,
      "componentType": 5125,
      "count": 175998,
      "type": "SCALAR"
    },
    {
      "bufferView": 2,
      "byteOffset": 6291144,
      "componentType": 5126,
      "count": 48112,
      "max": [
        16.913875579833984,
        2.5766265392303467,
        11.927359580993652
      ],
      "min": [
        -0.39806079864501953,
        -9.826469421386719,
        -2.1154098510742188
      ],
      "type": "VEC3"
    },
    {
      "bufferView": 2,
      "byteOffset": 6868488,
      "componentType": 5126,
      "count": 48112,
      "max": [
        0.9997679591178894,
        0.9973874688148499,
        0.9999963641166687
      ],
      "min": [
        -0.9997287392616272,
        -0.9999920725822449,
        -0.9999927878379822
      ],
      "type": "VEC3"
    },
    {
      "bufferView": 1,
      "byteOffset": 2097048,
      "componentType": 5126,
      "count": 48112,
      "max": [
        0.9996299743652344,
        0.9997559785842896
      ],
      "min": [
        0.00024399999529123306,
        0.0006459999713115394
      ],
      "type": "VEC2"
    },
    {
      "bufferView": 0,
      "byteOffset": 3794892,
      "componentType": 5125,
      "count": 125322,
      "type": "SCALAR"
    },
    {
      "bufferView": 2,
      "byteOffset": 7445832,
      "componentType": 5126,
      "count": 65532,
      "max": [
        9.029027938842773,
        2.027465581893921,
        11.661762237548828
      ],
      "min": [
        -12.784125328063965,
        -12.098010063171387,
        -2.1154098510742188
      ],
      "type": "VEC3"
    },
    {
      "bufferView": 2,
      "byteOffset": 8232216,
      "componentType": 5126,
      "count": 65532,
      "max": [
        0.9935100674629211,
        0.998802125453949,
        0.9999992847442627
      ],
      "min": [
        -0.9999575614929199,
        -0.9999994039535522,
        -0.9999911785125732
      ],
      "type": "VEC3"
    },
    {
      "bufferView": 1,
      "byteOffset": 2481944,
      "componentType": 5126,
      "count": 65532,
      "max": [
        1.9996190071105957,
        0.9997559785842896
      ],
      "min": [
        1.0002440214157104,
        0.0004600000102072954
      ],
      "type": "VEC2"
    },
    {
      "bufferView": 0,
      "byteOffset": 4296180,
      "componentType": 5125,
      "count": 301131,
      "type": "SCALAR"
    },
    {
      "bufferView": 2,
      "byteOffset": 9018600,
      "componentType": 5126,
      "count": 65532,
      "max": [
        13.515850067138672,
        1.5603296756744385,
        11.899737358093262
      ],
      "min": [
        -13.399726867675781,
        -11.783666610717773,
        0.6732807159423828
      ],
      "type": "VEC3"
    },
    {
      "bufferView": 2,
      "byteOffset": 9804984,
      "componentType": 5126,
      "count": 65532,
      "max": [
        0.9988527297973633,
        0.9948732852935791,
        0.9996029734611511
      ],
      "min": [
        -0.9999827146530151,
        -0.9999995827674866,
        -0.9999988675117493
      ],
      "type": "VEC3"
    },
    {
      "bufferView": 1,
      "byteOffset": 3006200,
      "componentType": 5126,
      "count": 65532,
      "max": [
        1.9994770288467407,
        0.9997559785842896
      ],
      "min": [
        1.0002440214157104,
        0.0005549999768845737
      ],
      "type": "VEC2"
    },
    {
      "bufferView": 0,
      "byteOffset": 5500704,
      "componentType": 5125,
      "count": 294189,
      "type": "SCALAR"
    },
    {
      "bufferView": 2,
      "byteOffset": 10591368,
      "componentType": 5126,
      "count": 65532,
      "max": [
        16.913875579833984,
        1.7683031558990479,
        11.927359580993652
      ],
      "min": [
        -13.140751838684082,
        -10.6892728805542,
        -0.9177794456481934
      ],
      "type": "VEC3"
    },
    {
      "bufferView": 2,
      "byteOffset": 11377752,
      "componentType": 5126,
      "count": 65532,
      "max": [
        0.997233510017395,
        0.9983886480331421,
        0.9999144673347473
      ],
      "min": [
        -0.9999761581420898,
        -0.999998927116394,
        -0.9999988675117493
      ],
      "type": "VEC3"
    },
    {
      "bufferView": 1,
      "byteOffset": 3530456,
      "componentType": 5126,
      "count": 65532,
      "max": [
        1.9996190071105957,
        0.9997559785842896
      ],
      "min": [
        1.0002440214157104,
        0.00036700000055134296
      ],
      "type": "VEC2"
    },
    {
      "bufferView": 0,
      "byteOffset": 6677460,
      "componentType": 5125,
      "count": 266538,
      "type": "SCALAR"
    },
    {
      "bufferView": 2,
      "byteOffset": 12164136,
      "componentType": 5126,
      "count": 22608,
      "max": [
        6.7337646484375,
        0.9030234813690186,
        9.723466873168945
      ],
      "min": [
        -0.17349910736083984,
        -9.858268737792969,
        1.1754941940307617
      ],
      "type": "VEC3"
    },
    {
      "bufferView": 2,
      "byteOffset": 12435432,
      "componentType": 5126,
      "count": 22608,
      "max": [
        0.9996713399887085,
        0.998802125453949,
        0.9998360276222229
      ],
      "min": [
        -0.9998113512992859,
        -0.9999979138374329,
        -0.9999822378158569
      ],
      "type": "VEC3"
    },
    {
      "bufferView": 1,
      "byteOffset": 4054712,
      "componentType": 5126,
      "count": 22608,
      "max": [
        1.9995249509811401,
        0.9997559785842896
      ],
      "min": [
        1.0002440214157104,
        0.00037299998803064227
      ],
      "type": "VEC2"
    },
    {
      "bufferView": 0,
      "byteOffset": 7743612,
      "componentType": 5125,
      "count": 83676,
      "type": "SCALAR"
    },
    {
      "bufferView": 2,
      "byteOffset": 12706728,
      "componentType": 5126,
      "count": 65532,
      "max": [
        9.021860122680664,
        1.637645959854126,
        10.647735595703125
      ],
      "min": [
        -8.845687866210938,
        -11.9806547164917,
        -2.1154098510742188
      ],
      "type": "VEC3"
    },
    {
      "bufferView": 2,
      "byteOffset": 13493112,
      "componentType": 5126,
      "count": 65532,
      "max": [
        0.9957447648048401,
        0.9995219707489014,
        0.9999999403953552
      ],
      "min": [
        -0.9999746084213257,
        -0.9999990463256836,
        -0.9999964833259583
      ],
      "type": "VEC3"
    },
    {
      "bufferView": 1,
      "byteOffset": 4235576,
      "componentType": 5126,
      "count": 65532,
      "max": [
        0.9996230006217957,
        1.9997559785842896
      ],
      "min": [
        0.00024399999529123306,
        1.0004370212554932
      ],
      "type": "VEC2"
    },
    {
      "bufferView": 0,
      "byteOffset": 8078316,
      "componentType": 5125,
      "count": 312507,
      "type": "SCALAR"
    },
    {
      "bufferView": 2,
      "byteOffset": 14279496,
      "componentType": 5126,
      "count": 65532,
      "max": [
        16.21137237548828,
        1.5644190311431885,
        11.719690322875977
      ],
      "min": [
        -13.459217071533203,
        -11.896541595458984,
        -0.4008660316467285
      ],
      "type": "VEC3"
    },
    {
      "bufferView": 2,
      "byteOffset": 15065880,
      "componentType": 5126,
      "count": 65532,
      "max": [
        0.9997679591178894,
        0.9962341785430908,
        0.9999196529388428
      ],
      "min": [
        -0.9999711513519287,
        -0.9999973177909851,
        -1.0
      ],
      "type": "VEC3"
    },
    {
      "bufferView": 1,
      "byteOffset": 4759832,
      "componentType": 5126,
      "count": 65532,
      "max": [
        0.9994180202484131,
        1.9997559785842896
      ],
      "min": [
        0.00024399999529123306,
        1.0003999471664429
      ],
      "type": "VEC2"
    },
    {
      "bufferView": 0,
      "byteOffset": 9328344,
      "componentType": 5125,
      "count": 285909,
      "type": "SCALAR"
    },
    {
      "bufferView": 2,
      "byteOffset": 15852264,
      "componentType": 5126,
      "count": 34021,
      "max": [
        16.913875579833984,
        1.7161133289337158,
        11.883403778076172
      ],
      "min": [
        -13.165897369384766,
        -11.666264533996582,
        -0.2772789001464844
      ],
      "type": "VEC3"
    },
    {
      "bufferView": 2,
      "byteOffset": 16260516,
      "componentType": 5126,
      "count": 34021,
      "max": [
        0.9953978061676025,
        0.9984356164932251,
        0.9997543096542358
      ],
      "min": [
        -0.9999217391014099,
        -0.999984860420227,
        -0.9999978542327881
      ],
      "type": "VEC3"
    },
    {
      "bufferView": 1,
      "byteOffset": 5284088,
      "componentType": 5126,
      "count": 34021,
      "max": [
        0.9995049834251404,
        1.9997559785842896
      ],
      "min": [
        0.00024399999529123306,
        1.0004719495773315
      ],
      "type": "VEC2"
    },
    {
      "bufferView": 0,
      "byteOffset": 10471980,
      "componentType": 5125,
      "count": 139716,
      "type": "SCALAR"
    },
    {
      "bufferView": 2,
      "byteOffset": 16668768,
      "componentType": 5126,
      "count": 30704,
      "max": [
        16.913875579833984,
        1.5519030094146729,
        11.704717636108398
      ],
      "min": [
        -13.140751838684082,
        -11.939094543457031,
        -2.1117148399353027
      ],
      "type": "VEC3"
    },
    {
      "bufferView": 2,
      "byteOffset": 17037216,
      "componentType": 5126,
      "count": 30704,
      "max": [
        0.9997422099113464,
        0.9986303448677063,
        0.9999247193336487
      ],
      "min": [
        -0.9999957084655762,
        -0.9999915361404419,
        -0.9999812245368958
      ],
      "type": "VEC3"
    },
    {
      "bufferView": 1,
      "byteOffset": 5556256,
      "componentType": 5126,
      "count": 30704,
      "max": [
        1.9995490312576294,
        1.154541015625
      ],
      "min": [
        1.0002440214157104,
        1.0003830194473267
      ],
      "type": "VEC2"
    },
    {
      "bufferView": 0,
      "byteOffset": 11030844,
      "componentType": 5125,
      "count": 131955,
      "type": "SCALAR"
    }
  ],
  "asset": {
    "extras": {
      "author": "Neo_minigan (https://sketchfab.com/neominigan)",
      "license": "CC-BY-4.0 (http://creativecommons.org/licenses/by/4.0/)",
      "source": "https://sketchfab.com/3d-models/resident-evil-final-scene-bfdfaa456ab144c1a6f40783666dd801",
      "title": "Resident Evil final scene"
    },
    "generator": "Sketchfab-12.67.0",
    "version": "2.0"
  },
  "bufferViews": [
    {
      "buffer": 0,
      "byteLength": 11558664,
      "name": "floatBufferViews",
      "target": 34963
    },
    {
      "buffer": 0,
      "byteLength": 5801888,
      "byteOffset": 11558664,
      "byteStride": 8,
      "name": "floatBufferViews",
      "target": 34962
    },
    {
      "buffer": 0,
      "byteLength": 17405664,
      "byteOffset": 17360552,
      "byteStride": 12,
      "name": "floatBufferViews",
      "target": 34962
    }
  ],
  "buffers": [
    {
      "byteLength": 34766216,
      "uri": "scene.bin"
    }
  ],
  "extensionsUsed": [
    "KHR_materials_unlit"
  ],
  "images": [
    {
      "uri": "textures/meshwf_Material_u1_v1_baseColor.jpeg"
    },
    {
      "uri": "textures/meshwf_Material_u2_v1_baseColor.jpeg"
    },
    {
      "uri": "textures/meshwf_Material_u1_v2_baseColor.jpeg"
    },
    {
      "uri": "textures/meshwf_Material_u2_v2_baseColor.jpeg"
    }
  ],
  "materials": [
    {
      "doubleSided": true,
      "extensions": {
        "KHR_materials_unlit": {}
      },
      "name": "meshwf_Material_u1_v1",
      "pbrMetallicRoughness": {
        "baseColorTexture": {
          "index": 0
        },
        "metallicFactor": 0.0
      }
    },
    {
      "doubleSided": true,
      "extensions": {
        "KHR_materials_unlit": {}
      },
      "name": "meshwf_Material_u2_v1",
      "pbrMetallicRoughness": {
        "baseColorTexture": {
          "index": 1
        },
        "metallicFactor": 0.0
      }
    },
    {
      "doubleSided": true,
      "extensions": {
        "KHR_materials_unlit": {}
      },
      "name": "meshwf_Material_u1_v2",
      "pbrMetallicRoughness": {
        "baseColorTexture": {
          "index": 2
        },
        "metallicFactor": 0.0
      }
    },
    {
      "doubleSided": true,
      "extensions": {
        "KHR_materials_unlit": {}
      },
      "name": "meshwf_Material_u2_v2",
      "pbrMetallicRoughness": {
        "baseColorTexture": {
          "index": 3
        },
        "metallicFactor": 0.0
      }
    }
  ],
  "meshes": [
    {
      "name": "default_meshwf_Material_u1_v1_0",
      "primitives": [
        {
          "attributes": {
            "NORMAL": 1,
            "POSITION": 0,
            "TEXCOORD_0": 2
          },
          "indices": 3,
          "material": 0,
          "mode": 4
        }
      ]
    },
    {
      "name": "default_meshwf_Material_u1_v1_0",
      "primitives": [
        {
          "attributes": {
            "NORMAL": 5,
            "POSITION": 4,
            "TEXCOORD_0": 6
          },
          "indices": 7,
          "material": 0,
          "mode": 4
        }
      ]
    },
    {
      "name": "default_meshwf_Material_u1_v1_0",
      "primitives": [
        {
          "attributes": {
            "NORMAL": 9,
            "POSITION": 8,
            "TEXCOORD_0": 10
          },
          "indices": 11,
          "material": 0,
          "mode": 4
        }
      ]
    },
    {
      "name": "default_meshwf_Material_u1_v1_0",
      "primitives": [
        {
          "attributes": {
            "NORMAL": 13,
            "POSITION": 12,
            "TEXCOORD_0": 14
          },
          "indices": 15,
          "material": 0,
          "mode": 4
        }
      ]
    },
    {
      "name": "default_meshwf_Material_u1_v1_0",
      "primitives": [
        {
          "attributes": {
            "NORMAL": 17,
            "POSITION": 16,
            "TEXCOORD_0": 18
          },
          "indices": 19,
          "material": 0,
          "mode": 4
        }
      ]
    },
    {
      "name": "default_meshwf_Material_u2_v1_0",
      "primitives": [
        {
          "attributes": {
            "NORMAL": 21,
            "POSITION": 20,
            "TEXCOORD_0": 22
          },
          "indices": 23,
          "material": 1,
          "mode": 4
        }
      ]
    },
    {
      "name": "default_meshwf_Material_u2_v1_0",
      "primitives": [
        {
          "attributes": {
            "NORMAL": 25,
            "POSITION": 24,
            "TEXCOORD_0": 26
          },
          "indices": 27,
          "material": 1,
          "mode": 4
        }
      ]
    },
    {
      "name": "default_meshwf_Material_u2_v1_0",
      "primitives": [
        {
          "attributes": {
            "NORMAL": 29,
            "POSITION": 28,
            "TEXCOORD_0": 30
          },
          "indices": 31,
          "material": 1,
          "mode": 4
        }
      ]
    },
    {
      "name": "default_meshwf_Material_u2_v1_0",
      "primitives": [
        {
          "attributes": {
            "NORMAL": 33,
            "POSITION": 32,
            "TEXCOORD_0": 34
          },
          "indices": 35,
          "material": 1,
          "mode": 4
        }
      ]
    },
    {
      "name": "default_meshwf_Material_u1_v2_0",
      "primitives": [
        {
          "attributes": {
            "NORMAL": 37,
            "POSITION": 36,
            "TEXCOORD_0": 38
          },
          "indices": 39,
          "material": 2,
          "mode": 4
        }
      ]
    },
    {
      "name": "default_meshwf_Material_u1_v2_0",
      "primitives": [
        {
          "attributes": {
            "NORMAL": 41,
            "POSITION": 40,
            "TEXCOORD_0": 42
          },
          "indices": 43,
          "material": 2,
          "mode": 4
        }
      ]
    },
    {
      "name": "default_meshwf_Material_u1_v2_0",
      "primitives": [
        {
          "attributes": {
            "NORMAL": 45,
            "POSITION": 44,
            "TEXCOORD_0": 46
          },
          "indices": 47,
          "material": 2,
          "mode": 4
        }
      ]
    },
    {
      "name": "default_meshwf_Material_u2_v2_0",
      "primitives": [
        {
          "attributes": {
            "NORMAL": 49,
            "POSITION": 48,
            "TEXCOORD_0": 50
          },
          "indices": 51,
          "material": 3,
          "mode": 4
        }
      ]
    }
  ],
  "nodes": [
    {
      "children": [
        1
      ],
      "matrix": [
        1.0,
        0.0,
        0.0,
        0.0,
        0.0,
        2.220446049250313e-16,
        -1.0,
        0.0,
        0.0,
        1.0,
        2.220446049250313e-16,
        0.0,
        0.0,
        0.0,
        0.0,
        1.0
      ],
      "name": "Sketchfab_model"
    },
    {
      "children": [
        2
      ],
      "matrix": [
        1.0,
        0.0,
        0.0,
        0.0,
        0.0,
        0.0,
        1.0,
        0.0,
        0.0,
        -1.0,
        0.0,
        0.0,
        0.0,
        0.0,
        0.0,
        1.0
      ],
      "name": "992cfac946074711aea0edb9e27643e2.fbx"
    },
    {
      "children": [
        3
      ],
      "name": "RootNode"
    },
    {
      "children": [
        4
      ],
      "matrix": [
        1.0,
        0.0,
        0.0,
        0.0,
        0.0,
        -0.9999999999999991,
        4.3711387965113384e-08,
        0.0,
        0.0,
        -4.3711387965113384e-08,
        -0.9999999999999991,
        0.0,
        0.0,
        5.165869235992432,
        0.0,
        1.0
      ],
      "name": "default"
    },
    {
      "children": [
        5,
        6,
        7,
        8,
        9,
        10,
        11,
        12,
        13,
        14,
        15,
        16,
        17
      ],
      "matrix": [
        1.0,
        0.0,
        -0.0,
        0.0,
        0.0,
        1.0,
        0.0,
        0.0,
        0.0,
        0.0,
        1.0,
        0.0,
        -1.3384432792663574,
        5.165869235992432,
        -4.905974864959717,
        1.0
      ],
      "name": "Object_4"
    },
    {
      "mesh": 0,
      "name": "default_meshwf_Material_u1_v1_0"
    },
    {
      "mesh": 1,
      "name": "default_meshwf_Material_u1_v1_0"
    },
    {
      "mesh": 2,
      "name": "default_meshwf_Material_u1_v1_0"
    },
    {
      "mesh": 3,
      "name": "default_meshwf_Material_u1_v1_0"
    },
    {
      "mesh": 4,
      "name": "default_meshwf_Material_u1_v1_0"
    },
    {
      "mesh": 5,
      "name": "default_meshwf_Material_u2_v1_0"
    },
    {
      "mesh": 6,
      "name": "default_meshwf_Material_u2_v1_0"
    },
    {
      "mesh": 7,
      "name": "default_meshwf_Material_u2_v1_0"
    },
    {
      "mesh": 8,
      "name": "default_meshwf_Material_u2_v1_0"
    },
    {
      "mesh": 9,
      "name": "default_meshwf_Material_u1_v2_0"
    },
    {
      "mesh": 10,
      "name": "default_meshwf_Material_u1_v2_0"
    },
    {
      "mesh": 11,
      "name": "default_meshwf_Material_u1_v2_0"
    },
    {
      "mesh": 12,
      "name": "default_meshwf_Material_u2_v2_0"
    }
  ],
  "samplers": [
    {
      "magFilter": 9729,
      "minFilter": 9987,
      "wrapS": 10497,
      "wrapT": 10497
    }
  ],
  "scene": 0,
  "scenes": [
    {
      "name": "Sketchfab_Scene",
      "nodes": [
        0
      ]
    }
  ],
  "textures": [
    {
      "sampler": 0,
      "source": 0
    },
    {
      "sampler": 0,
      "source": 1
    },
    {
      "sampler": 0,
      "source": 2
    },
    {
      "sampler": 0,
      "source": 3
    }
  ]
}
